<svg width="35" height="32" viewBox="0 0 35 32" fill="none" xmlns="http://www.w3.org/2000/svg">
<g clip-path="url(#clip0_181_98)">
<path d="M18.9584 4C11.7105 4 5.83337 9.37333 5.83337 16H1.45837L7.13129 21.1867L7.23337 21.3733L13.125 16H8.75004C8.75004 10.84 13.3146 6.66667 18.9584 6.66667C24.6021 6.66667 29.1667 10.84 29.1667 16C29.1667 21.16 24.6021 25.3333 18.9584 25.3333C16.1438 25.3333 13.5917 24.28 11.7542 22.5867L9.68337 24.48C12.0605 26.6533 15.3271 28 18.9584 28C26.2063 28 32.0834 22.6267 32.0834 16C32.0834 9.37333 26.2063 4 18.9584 4ZM17.5 10.6667V17.3333L23.7417 20.72L24.7917 19.1067L19.6875 16.3333V10.6667H17.5Z" fill="#8A7EBE"/>
</g>
<defs>
<clipPath id="clip0_181_98">
<rect width="35" height="32" fill="white"/>
</clipPath>
</defs>
</svg>
