<svg width="919" height="762" viewBox="0 0 919 762" fill="none" xmlns="http://www.w3.org/2000/svg">
<path fill-rule="evenodd" clip-rule="evenodd" d="M720.836 238.594C759.766 238.594 791.324 208.952 791.324 172.387C791.324 135.822 759.766 106.181 720.836 106.181C681.907 106.181 650.349 135.822 650.349 172.387C650.349 208.952 681.907 238.594 720.836 238.594Z" fill="#F2F2F2"/>
<path fill-rule="evenodd" clip-rule="evenodd" d="M720.836 123.669C723.04 123.669 724.826 121.991 724.826 119.921C724.826 117.852 723.04 116.174 720.836 116.174C718.633 116.174 716.847 117.852 716.847 119.921C716.847 121.991 718.633 123.669 720.836 123.669Z" fill="black" fill-opacity="0.1"/>
<path fill-rule="evenodd" clip-rule="evenodd" d="M664.978 176.135C667.182 176.135 668.968 174.457 668.968 172.387C668.968 170.317 667.182 168.64 664.978 168.64C662.775 168.64 660.988 170.317 660.988 172.387C660.988 174.457 662.775 176.135 664.978 176.135Z" fill="black" fill-opacity="0.1"/>
<path fill-rule="evenodd" clip-rule="evenodd" d="M776.695 176.135C778.898 176.135 780.685 174.457 780.685 172.387C780.685 170.317 778.898 168.64 776.695 168.64C774.491 168.64 772.705 170.317 772.705 172.387C772.705 174.457 774.491 176.135 776.695 176.135Z" fill="black" fill-opacity="0.1"/>
<path fill-rule="evenodd" clip-rule="evenodd" d="M720.836 228.601C723.04 228.601 724.826 226.923 724.826 224.853C724.826 222.783 723.04 221.105 720.836 221.105C718.633 221.105 716.847 222.783 716.847 224.853C716.847 226.923 718.633 228.601 720.836 228.601Z" fill="black" fill-opacity="0.1"/>
<path fill-rule="evenodd" clip-rule="evenodd" d="M720.836 127.417L723.496 171.138H718.177L720.836 127.417Z" fill="#AFB9C5"/>
<path fill-rule="evenodd" clip-rule="evenodd" d="M744.375 194.495L719.924 175.063L723.685 171.53L744.375 194.495Z" fill="#AFB9C5"/>
<path fill-rule="evenodd" clip-rule="evenodd" d="M720.836 177.384C723.774 177.384 726.156 175.147 726.156 172.387C726.156 169.628 723.774 167.391 720.836 167.391C717.899 167.391 715.517 169.628 715.517 172.387C715.517 175.147 717.899 177.384 720.836 177.384Z" fill="#C5CFD6"/>
<g opacity="0.345889">
<path fill-rule="evenodd" clip-rule="evenodd" d="M646.085 520.14C636.915 423.892 144.917 238.124 53.5804 329.288C-37.7571 420.451 50.0525 591.543 241.462 635.354C432.872 679.167 655.254 616.388 646.085 520.14Z" fill="#F2F2F2"/>
<path fill-rule="evenodd" clip-rule="evenodd" d="M341.99 582.677C350.204 500.911 790.915 343.093 872.731 420.541C954.547 497.988 933.838 660.89 762.382 698.109C590.925 735.33 333.777 664.444 341.99 582.677Z" fill="#DDE3E9"/>
</g>
<path fill-rule="evenodd" clip-rule="evenodd" d="M77.8025 261.92C109.019 261.92 134.326 249.337 134.326 233.813C134.326 218.291 109.019 205.707 77.8025 205.707C46.5856 205.707 21.2793 218.291 21.2793 233.813C21.2793 249.337 46.5856 261.92 77.8025 261.92Z" fill="#F2F2F2"/>
<path fill-rule="evenodd" clip-rule="evenodd" d="M143.635 253.175C143.635 218.68 114.161 190.716 77.8025 190.716C41.444 190.716 11.9696 218.68 11.9696 253.175" fill="#DDE3E9"/>
<path d="M81.1274 0H74.4776V199.869H81.1274V0Z" fill="#DDE3E9"/>
<g opacity="0.7">
<path fill-rule="evenodd" clip-rule="evenodd" d="M180.874 198.62C204.208 198.62 223.124 188.464 223.124 175.937C223.124 163.41 204.208 153.254 180.874 153.254C157.54 153.254 138.624 163.41 138.624 175.937C138.624 188.464 157.54 198.62 180.874 198.62Z" fill="#F2F2F2"/>
<path fill-rule="evenodd" clip-rule="evenodd" d="M230.083 191.563C230.083 163.725 208.052 141.157 180.874 141.157C153.696 141.157 131.666 163.725 131.666 191.563" fill="#DDE3E9"/>
<path d="M184.864 0H178.214V169.889H184.864V0Z" fill="#DDE3E9"/>
</g>
<path d="M755.415 292.603L780.11 269.398C784.265 265.494 791.004 265.494 795.16 269.398L860.902 331.174C864.891 334.922 867.132 340.004 867.132 345.303V754.505" stroke="#CBCBCB" stroke-width="8"/>
<path d="M901.711 753.255H831.223C829.019 753.255 827.233 754.933 827.233 757.003V758.252C827.233 760.322 829.019 762 831.223 762H901.711C903.914 762 905.7 760.322 905.7 758.252V757.003C905.7 754.933 903.914 753.255 901.711 753.255Z" fill="#AFB9C5"/>
<path d="M708.201 278.985C725.34 262.886 753.128 262.886 770.268 278.985C787.408 295.083 787.408 321.184 770.268 337.283L743.937 362.016L681.869 303.718L708.201 278.985Z" fill="#C5CFD6"/>
<path fill-rule="evenodd" clip-rule="evenodd" d="M707.84 337.936C724.979 354.035 741.61 364.515 744.987 361.344C748.363 358.173 737.206 342.552 720.065 326.454C702.926 310.354 686.295 299.875 682.918 303.046C679.543 306.217 690.701 321.838 707.84 337.936Z" fill="#F2F2F2"/>
<path fill-rule="evenodd" clip-rule="evenodd" d="M62.8511 464.911C66.6607 464.474 70.7269 464.629 74.2699 466.04C81.8036 469.044 83.9451 477.404 83.8418 484.2C83.7304 491.512 82.077 499.501 87.9967 505.393C90.7179 508.101 94.1028 510.175 96.7748 512.934C99.63 515.883 101.87 519.255 103.529 522.878C106.575 529.531 108.069 537.356 105.284 544.335C102.832 550.481 96.6627 556.027 97.9957 563.015C99.3863 570.304 107.211 575.877 112.102 581.307C117.639 587.451 122.736 595.304 123.574 603.361C124.376 611.084 120.797 618.894 115.306 624.731C104.332 636.396 87.8372 642.113 71.2053 642.078C64.1438 642.063 56.1489 641.764 50.055 638.2C48.1715 637.098 47.1779 635.861 46.0584 634.144C45.0545 632.602 43.7284 631.6 42.1935 630.51C38.8213 628.115 36.3859 624.888 34.8317 621.276C28.7965 607.244 33.6202 589.885 42.0681 577.425C44.0699 574.473 45.7087 571.631 44.7363 568.113C43.7215 564.439 41.2273 561.127 39.0213 557.97C36.8412 554.848 34.3526 551.871 32.6488 548.499C30.8643 544.963 30.3618 541.262 30.677 537.395C31.2696 530.128 34.609 523.423 39.337 517.58C43.8908 511.951 49.2378 506.565 49.2497 499.191C49.2629 491.374 43.6993 484.421 46.0695 476.473C47.0509 473.183 49.0222 469.807 52.1989 467.834C55.2454 465.942 59.268 465.322 62.8511 464.911Z" fill="#DDE3E9"/>
<path fill-rule="evenodd" clip-rule="evenodd" d="M60.3616 477.406C60.4331 476.357 61.7588 475.727 62.8025 476.001C64.1763 476.362 64.1499 477.567 64.1136 478.642C64.0024 481.943 64.5112 485.152 65.3563 488.357C67.1125 495.017 70.3582 501.153 72.9297 507.552C75.4989 513.944 76.7049 520.544 75.1978 527.309C73.7769 533.687 71.5447 539.899 70.0907 546.285C68.809 551.914 67.4451 557.85 69.397 563.464C71.2751 568.868 75.4274 573.268 78.4175 578.151C84.6071 588.261 87.3532 599.476 87.7204 611.017C87.8907 616.376 87.7375 621.785 86.4138 627.042C85.6518 630.069 84.628 634.158 81.8666 636.248C80.5933 637.213 78.4155 637.545 77.3438 636.118C76.3377 634.781 77.2204 632.708 77.5397 631.282C78.9232 625.106 79.2014 618.795 78.8702 612.525C78.5497 606.452 77.7857 600.388 75.7506 594.587C73.8616 589.204 70.992 584.369 67.6147 579.659C64.1732 574.861 60.5954 570.052 59.1735 564.365C57.7287 558.591 58.9024 552.714 60.4719 547.049C62.1317 541.058 64.3058 535.238 66.5532 529.408C68.7436 523.728 69.52 518.353 68.3108 512.408C65.9222 500.664 59.5285 489.638 60.3616 477.406Z" fill="#C5CFD6"/>
<path fill-rule="evenodd" clip-rule="evenodd" d="M163.441 479.163C168.156 480.508 172.838 482.677 176.199 486.078C183.345 493.312 181.152 504.245 177.207 512.23C172.961 520.824 166.526 529.463 170.155 539.324C171.821 543.858 174.625 547.964 176.206 552.532C177.896 557.414 178.625 562.498 178.532 567.592C178.36 576.949 175.711 586.933 168.516 593.826C162.182 599.896 151.825 603.441 149.456 612.355C146.984 621.655 153.026 632.07 155.709 640.88C158.744 650.853 160.304 662.631 156.751 672.57C153.348 682.095 144.755 689.582 135.028 693.802C115.593 702.234 93.0287 700.936 73.541 692.768C65.2673 689.299 56.0584 685.039 50.9167 677.846C49.3277 675.623 48.8578 673.675 48.5115 671.097C48.2011 668.783 47.2097 666.951 46.0229 664.911C43.4151 660.431 42.3748 655.425 42.5849 650.393C43.4024 630.849 58.8287 612.678 75.7492 602.07C79.7585 599.556 83.2793 596.998 84.1189 592.361C84.9956 587.52 83.9346 582.384 83.1238 577.572C82.3229 572.816 81.0792 568.081 80.9794 563.258C80.8753 558.206 82.3687 553.583 84.9153 549.163C89.6993 540.86 97.3894 534.561 106.223 529.961C114.731 525.53 124.034 521.772 128.198 513.057C132.613 503.819 129.999 492.877 137.251 484.637C140.255 481.225 144.466 478.195 149.304 477.414C153.941 476.666 159.007 477.899 163.441 479.163Z" fill="#DDE3E9"/>
<path fill-rule="evenodd" clip-rule="evenodd" d="M153.811 494.439C154.48 493.231 156.382 493.137 157.45 493.976C158.854 495.08 158.15 496.494 157.509 497.748C155.538 501.604 154.344 505.654 153.546 509.864C151.886 518.617 152.26 527.481 151.699 536.324C151.139 545.16 148.869 553.57 143.335 560.838C138.116 567.692 132.042 573.951 126.781 580.797C122.145 586.831 117.24 593.189 116.392 600.798C115.575 608.122 117.976 615.378 118.749 622.634C120.35 637.653 117.307 652.286 111.302 666.134C108.513 672.565 105.317 678.894 100.839 684.467C98.2603 687.677 94.7824 692.017 90.3883 693.131C88.3621 693.646 85.6299 692.969 85.1724 690.752C84.7423 688.67 86.9296 686.652 88.0985 685.119C93.1594 678.487 97.0038 671.151 100.113 663.562C103.125 656.212 105.612 648.655 106.467 640.783C107.26 633.479 106.6 626.34 105.277 619.101C103.928 611.725 102.426 604.267 103.934 596.834C105.465 589.283 110.114 582.902 115.108 576.966C120.389 570.688 126.177 564.867 132.055 559.069C137.783 553.42 141.688 547.438 143.59 539.803C147.346 524.717 146.017 508.514 153.811 494.439Z" fill="#C5CFD6"/>
<path fill-rule="evenodd" clip-rule="evenodd" d="M17.6964 534.649C25.5355 534.649 32.4274 538.551 37.1764 544.09C42.7355 550.573 43.8582 558.491 46.1156 566.218C47.2388 570.063 49.1707 573.881 52.5564 576.494C55.6357 578.87 59.5449 579.345 63.2308 580.506C70.597 582.826 76.5452 588.415 78.8943 595.233C81.7601 603.551 78.7246 611.939 79.2473 620.37C79.7272 628.111 87.8537 632.941 94.3921 636.652C100.839 640.312 106.647 643.737 108.589 650.866C110.648 658.428 111.339 666.867 108.487 674.336C103.739 686.773 89.8419 692.249 76.4141 693.097C64.2278 693.868 48.905 692.659 39.7533 684.351C34.277 679.379 32.2939 672.425 32.5399 665.507C32.6927 661.205 33.6 656.942 34.773 652.785C35.6044 649.84 36.7277 646.905 37.0477 643.861C37.8983 635.76 29.9275 634.205 23.1426 631.98C14.5208 629.154 8.48497 623.815 4.28776 616.377C0.37902 609.451 -1.26095 601.677 1.08217 594.052C2.27886 590.159 4.44948 586.627 7.39321 583.623C8.68912 582.3 10.5154 581.197 11.6851 579.808C12.7767 578.51 12.5391 576.829 12.1628 575.31C10.4233 568.291 5.00328 562.478 3.06487 555.47C1.31491 549.146 2.34935 541.275 8.50558 537.195C11.1654 535.432 14.4454 534.669 17.6964 534.649Z" fill="#C5CFD6"/>
<path fill-rule="evenodd" clip-rule="evenodd" d="M28.3782 552.939C36.6868 561.252 38.9453 572.531 39.6081 583.462C39.9793 589.592 39.5929 596.058 41.5103 602.004C43.151 607.093 46.9971 610.983 50.9617 614.661C58.9421 622.061 67.8421 629.586 70.1764 640.297C71.5459 646.583 70.6215 653.077 72.514 659.293C74.2348 664.944 77.2646 670.495 80.9498 675.267C83.9169 679.111 87.7827 682.053 91.0262 685.634C92.0158 686.728 93.4333 688.337 93.0249 689.881C92.547 691.689 90.0954 692.261 88.3559 691.977C84.3005 691.315 80.8868 687.678 78.2351 685.033C74.3576 681.167 71.0626 677.008 68.3846 672.343C65.4115 667.162 63.0177 661.665 61.9949 655.852C60.9334 649.822 61.4617 643.538 59.038 637.75C54.9594 628.013 45.0669 622.267 37.9147 614.677C29.0033 605.22 30.3323 593.451 31.2451 581.817C31.7465 575.424 32.2449 568.205 28.8057 562.367C27.4929 560.14 24.5658 558.063 24.0013 555.529C23.4842 553.21 26.3061 550.865 28.3782 552.939Z" fill="#AFB9C5"/>
<path fill-rule="evenodd" clip-rule="evenodd" d="M37.2393 689.547C37.2393 737.089 45.4994 762 89.1072 762C132.715 762 140.975 737.089 140.975 689.547H37.2393Z" fill="#89C5CC"/>
<path d="M264.661 620.842H219.443C217.974 620.842 216.783 621.961 216.783 623.341V629.587C216.783 630.966 217.974 632.085 219.443 632.085H264.661C266.13 632.085 267.321 630.966 267.321 629.587V623.341C267.321 621.961 266.13 620.842 264.661 620.842Z" fill="#AFB9C5"/>
<path fill-rule="evenodd" clip-rule="evenodd" d="M239.681 529.652H242.052H243.382H245.753C246.442 548.913 249.642 567.234 255.352 584.616H263.996C275.381 584.616 284.611 593.286 284.611 603.979C284.611 614.672 275.381 623.341 263.996 623.341H220.108C208.723 623.341 199.493 614.672 199.493 603.979C199.493 593.286 208.723 584.616 220.108 584.616H230.082C238.647 558.543 239.681 529.652 239.681 529.652Z" fill="#DDE3E9"/>
<path fill-rule="evenodd" clip-rule="evenodd" d="M195.001 443.058C195.001 443.058 217.862 440.96 240.722 440.96C263.583 440.96 286.443 443.058 286.443 443.058L292.59 542.31C292.59 542.31 266.656 544.642 240.722 544.642C214.788 544.642 188.854 542.31 188.854 542.31L195.001 443.058Z" fill="#C5CFD6"/>
<path fill-rule="evenodd" clip-rule="evenodd" d="M158.265 762V659.567V632.085H186.194H296.58H324.509V659.567V762H296.58V659.567H186.194V762H158.265Z" fill="#F2F2F2"/>
<path fill-rule="evenodd" clip-rule="evenodd" d="M714.693 409.991C726.441 436.21 746.41 454.428 756.987 481.69C763.259 497.857 765.874 515.437 766.032 533.44C766.119 543.219 765.937 553.005 765.889 562.783C765.841 572.32 765.566 581.795 764.704 591.271C763.837 600.796 762.867 610.208 762.44 619.792C762.106 627.26 761.955 635.947 759.26 642.758C757.116 648.176 751.669 648.969 750.225 642.399C749.421 638.747 749.522 634.669 749.611 630.915C749.724 626.099 750.022 621.291 750.175 616.476C750.786 597.153 749.993 577.828 750.408 558.499C750.812 539.612 753.396 520.747 750.537 501.987C748.175 486.496 742.177 473.192 735.282 460.439C728.649 448.17 721.428 436.198 716.946 422.241C715.659 418.233 714.664 414.08 714.187 409.769C714.396 409.678 714.564 409.751 714.693 409.991Z" fill="#C1DEE2"/>
<path fill-rule="evenodd" clip-rule="evenodd" d="M711.492 461.719C713.818 463.296 715.118 465.605 716.69 467.882C718.645 470.713 720.944 473.268 722.899 476.102C726.974 482.009 730.556 488.279 734.272 494.425C741.326 506.089 746.682 518.524 749.333 532.02C752.084 546.007 752.825 560.442 753.978 574.638C755.201 589.683 756.433 604.838 756.595 619.942C756.668 626.709 757.058 633.892 756.192 640.611C755.653 644.793 753.644 648.359 749.113 648.325C739.489 648.252 734.97 638.24 733.083 630.029C730.304 617.937 729.75 605.094 730.19 592.729C730.721 577.819 733.476 563.133 734.668 548.28C735.932 532.557 735.219 517.111 729.463 502.307C726.555 494.826 723.181 487.523 720.15 480.091C718.86 476.927 717.803 473.677 716.061 470.73C714.122 467.453 711.716 464.478 710.197 460.948C710.628 461.205 711.06 461.461 711.492 461.719Z" fill="#89C5CC"/>
<path fill-rule="evenodd" clip-rule="evenodd" d="M822.357 430.365C822.653 430.149 822.948 429.934 823.243 429.718C822.393 433.082 820.859 435.814 819.684 438.888C818.629 441.652 818.095 444.78 817.385 447.802C815.716 454.899 813.787 461.835 812.212 468.992C809.092 483.154 809.683 498.41 811.728 514.122C813.661 528.965 816.716 543.784 818.172 558.623C819.38 570.929 819.898 583.619 818.747 595.36C817.965 603.334 815.4 612.855 808.412 612.051C805.121 611.672 803.406 607.952 802.714 603.754C801.603 597.011 801.371 589.92 800.938 583.215C799.972 568.247 799.78 553.325 799.589 538.511C799.408 524.536 798.912 510.282 799.905 496.658C800.864 483.511 803.863 471.665 808.152 460.735C810.41 454.976 812.564 449.083 815.101 443.594C816.318 440.962 817.805 438.636 819.023 436.005C820.002 433.889 820.78 431.718 822.357 430.365Z" fill="#C1DEE2"/>
<path fill-rule="evenodd" clip-rule="evenodd" d="M714.465 505.046C715.737 503.039 718.538 509.657 718.965 510.49C718.784 510.075 718.604 509.662 718.421 509.25C720.947 513.195 723.258 517.302 724.695 521.825C726.116 526.304 727.337 530.873 728.671 535.383C731.176 543.844 734.405 552.067 736.672 560.605C738.883 568.924 739.44 577.104 738.904 585.71C738.348 594.654 738.008 603.736 738.657 612.676C738.966 616.945 740.444 620.923 741.456 625.032C742.47 629.147 743.268 633.317 744.466 637.381C744.741 636.851 744.776 638.621 744.776 638.755C744.768 639.77 744.617 640.621 744.269 641.584C743.377 644.06 741.705 646.162 739.161 646.846C734.564 648.079 730.295 644.151 728.814 640.004C726.687 634.053 725.514 627.477 724.501 621.222C723.572 615.487 723.351 609.718 723.628 603.904C724.172 592.438 726.381 581.121 726.978 569.659C727.629 557.179 724.997 545.453 722.793 533.306C721.732 527.453 720.717 521.655 718.65 516.079C717.814 513.82 716.723 511.828 715.58 509.742C714.929 508.556 713.613 506.44 714.465 505.046Z" fill="#C1DEE2"/>
<path fill-rule="evenodd" clip-rule="evenodd" d="M751.761 485.552C751.234 499.849 750.324 514.037 748.295 528.183C746.224 542.619 743.845 557.006 741.852 571.454C739.912 585.518 737.88 599.816 738.15 614.078C738.349 624.581 736.495 642.352 748.916 647.536C761.496 652.786 764.194 630.365 765.02 622.965C766.603 608.767 766.091 594.419 765.322 580.143C764.534 565.49 763.217 550.913 761.586 536.315C759.774 520.1 758.352 503.812 757.209 487.55C756.646 479.506 756.506 471.477 756.662 463.431C756.809 455.839 756.502 448.168 753.628 440.96C753.478 441.063 753.329 441.165 753.178 441.268" fill="#69A1AC"/>
<path fill-rule="evenodd" clip-rule="evenodd" d="M816.704 530.845C814.441 533.941 812.161 537.006 810.025 540.285C806.201 546.153 802.745 552.677 801.704 561.066C799.529 578.62 801.274 597.582 801.695 615.675C801.782 619.371 801.284 622.958 802.835 626.476C804.242 629.667 806.873 632.098 809.38 632.085C814.746 632.057 813.927 619.712 813.936 614.279C813.952 604.757 812.815 595.137 812.913 585.623C813.01 576.197 813.621 566.746 815.076 557.794C816.549 548.734 818.707 540.032 821.553 531.913C821.948 530.787 824.783 522.079 822.105 523.58" fill="#89C5CC"/>
<path fill-rule="evenodd" clip-rule="evenodd" d="M793.003 437.213C789.474 437.213 789.496 453.735 789.39 455.857C789.006 463.515 789.097 471.176 788.854 478.835C788.324 495.551 787.672 512.414 784.998 528.936C783.559 537.831 781.891 546.687 780.095 555.513C778.296 564.366 775.879 573.208 774.696 582.173C773.559 590.791 774.201 599.578 774.357 608.239C774.512 616.952 774.793 625.682 776.008 634.319C776.308 636.45 776.66 638.575 777.037 640.694C777.349 642.46 777.167 644.65 777.698 646.327C778.547 649.014 782.191 649.894 784.645 649.474C791.284 648.336 795.526 640.505 797.794 634.784C800.691 627.477 802.229 619.552 803.745 611.854C805.463 603.131 806.47 594.275 806.942 585.395C807.903 567.347 806.671 549.28 805.294 531.289C804.528 521.284 803.644 511.324 802.291 501.38C800.942 491.479 799.214 481.622 798.088 471.692C797.27 464.477 796.464 457.25 795.935 450.006C795.807 448.28 795.701 437.213 793.003 437.213Z" fill="#69A1AC"/>
<path fill-rule="evenodd" clip-rule="evenodd" d="M788.586 557.308C788.01 539.962 780.587 463.77 778.898 442.794C778.475 437.543 774.41 415.684 773.882 409.731C772.452 411.414 772.573 437.599 772.589 443.617C772.606 449.569 771.82 455.421 771.416 461.341C771.004 467.382 761.496 545.394 760.263 551.197C757.808 562.745 756.165 574.593 754.898 586.401C753.664 597.907 751.745 610.048 753.396 621.615C753.776 624.278 754.377 626.899 755.356 629.345C756.412 631.988 757.136 634.433 757.985 637.198C759.349 641.653 761.819 645.563 765.614 647.403C773.392 651.174 777.57 642.637 779.688 635.205C783.069 623.335 785.241 611.272 786.258 598.806C787.384 585.014 789.046 571.194 788.586 557.308Z" fill="#89C5CC"/>
<path d="M824.573 608.351H708.867C707.398 608.351 706.207 609.469 706.207 610.849V719.528C706.207 720.907 707.398 722.026 708.867 722.026H824.573C826.042 722.026 827.233 720.907 827.233 719.528V610.849C827.233 609.469 826.042 608.351 824.573 608.351Z" fill="white"/>
<path d="M703.547 620.842H695.567C694.098 620.842 692.907 621.961 692.907 623.341V759.501C692.907 760.881 694.098 762 695.567 762H703.547C705.016 762 706.207 760.881 706.207 759.501V623.341C706.207 621.961 705.016 620.842 703.547 620.842Z" fill="#C5CFD6"/>
<path d="M770.045 620.842H762.065C760.596 620.842 759.405 621.961 759.405 623.341V759.501C759.405 760.881 760.596 762 762.065 762H770.045C771.514 762 772.705 760.881 772.705 759.501V623.341C772.705 621.961 771.514 620.842 770.045 620.842Z" fill="#C5CFD6"/>
<path d="M837.873 620.842H829.893C828.424 620.842 827.233 621.961 827.233 623.341V759.501C827.233 760.881 828.424 762 829.893 762H837.873C839.342 762 840.533 760.881 840.533 759.501V623.341C840.533 621.961 839.342 620.842 837.873 620.842Z" fill="#C5CFD6"/>
</svg>
