<svg width="57" height="86" viewBox="0 0 57 86" fill="none" xmlns="http://www.w3.org/2000/svg">
<g clip-path="url(#clip0_16_90)">
<path d="M28.5 50.1665C32.4425 50.1665 35.6012 45.3648 35.6012 39.4165L35.625 17.9165C35.625 11.9682 32.4425 7.1665 28.5 7.1665C24.5575 7.1665 21.375 11.9682 21.375 17.9165V39.4165C21.375 45.3648 24.5575 50.1665 28.5 50.1665ZM41.0875 39.4165C41.0875 50.1665 35.055 57.6915 28.5 57.6915C21.945 57.6915 15.9125 50.1665 15.9125 39.4165H11.875C11.875 51.6357 18.335 61.7407 26.125 63.4965V75.2498H30.875V63.4965C38.665 61.7765 45.125 51.6715 45.125 39.4165H41.0875Z" fill="white"/>
</g>
<defs>
<clipPath id="clip0_16_90">
<rect width="57" height="86" fill="white"/>
</clipPath>
</defs>
</svg>
