<svg width="35" height="32" viewBox="0 0 35 32" fill="none" xmlns="http://www.w3.org/2000/svg">
<g clip-path="url(#clip0_181_89)">
<path d="M17.5 18.6667C19.9208 18.6667 21.8604 16.88 21.8604 14.6667L21.875 6.66669C21.875 4.45335 19.9208 2.66669 17.5 2.66669C15.0791 2.66669 13.125 4.45335 13.125 6.66669V14.6667C13.125 16.88 15.0791 18.6667 17.5 18.6667ZM25.2291 14.6667C25.2291 18.6667 21.525 21.4667 17.5 21.4667C13.475 21.4667 9.77079 18.6667 9.77079 14.6667H7.29163C7.29163 19.2134 11.2583 22.9734 16.0416 23.6267V28H18.9583V23.6267C23.7416 22.9867 27.7083 19.2267 27.7083 14.6667H25.2291Z" fill="#7260A4"/>
</g>
<defs>
<clipPath id="clip0_181_89">
<rect width="35" height="32" fill="white"/>
</clipPath>
</defs>
</svg>
