<svg width="45" height="44" viewBox="0 0 45 44" fill="none" xmlns="http://www.w3.org/2000/svg">
<g clip-path="url(#clip0_160_75)">
<path d="M29.0625 25.6667H27.5813L27.0563 25.1717C28.8938 23.0817 30 20.3683 30 17.4167C30 10.835 24.5438 5.5 17.8125 5.5C11.0813 5.5 5.625 10.835 5.625 17.4167C5.625 23.9983 11.0813 29.3333 17.8125 29.3333C20.8313 29.3333 23.6063 28.2517 25.7437 26.455L26.25 26.9683V28.4167L35.625 37.565L38.4188 34.8333L29.0625 25.6667ZM17.8125 25.6667C13.1438 25.6667 9.375 21.9817 9.375 17.4167C9.375 12.8517 13.1438 9.16667 17.8125 9.16667C22.4813 9.16667 26.25 12.8517 26.25 17.4167C26.25 21.9817 22.4813 25.6667 17.8125 25.6667Z" fill="#ECECEC"/>
</g>
<defs>
<clipPath id="clip0_160_75">
<rect width="45" height="44" fill="white"/>
</clipPath>
</defs>
</svg>
