<svg width="84" height="78" viewBox="0 0 84 78" fill="none" xmlns="http://www.w3.org/2000/svg">
<path d="M66.99 42.0548C67.13 41.0798 67.2 40.0723 67.2 38.9998C67.2 37.9598 67.13 36.9198 66.955 35.9448L74.06 30.8098C74.69 30.3548 74.865 29.4773 74.48 28.8273L67.76 18.0373C67.34 17.3223 66.465 17.0948 65.695 17.3223L57.33 20.4423C55.58 19.2073 53.725 18.1673 51.66 17.3873L50.4 9.1323C50.26 8.3523 49.56 7.7998 48.72 7.7998H35.28C34.44 7.7998 33.775 8.3523 33.635 9.1323L32.375 17.3873C30.31 18.1673 28.42 19.2398 26.705 20.4423L18.34 17.3223C17.57 17.0623 16.695 17.3223 16.275 18.0373L9.59002 28.8273C9.17002 29.5098 9.31002 30.3548 10.01 30.8098L17.115 35.9448C16.94 36.9198 16.8 37.9923 16.8 38.9998C16.8 40.0073 16.87 41.0798 17.045 42.0548L9.94002 47.1898C9.31002 47.6448 9.13502 48.5223 9.52002 49.1723L16.24 59.9623C16.66 60.6773 17.535 60.9048 18.305 60.6773L26.67 57.5573C28.42 58.7923 30.275 59.8323 32.34 60.6123L33.6 68.8673C33.775 69.6473 34.44 70.1998 35.28 70.1998H48.72C49.56 70.1998 50.26 69.6473 50.365 68.8673L51.625 60.6123C53.69 59.8323 55.58 58.7923 57.295 57.5573L65.66 60.6773C66.43 60.9373 67.305 60.6773 67.725 59.9623L74.445 49.1723C74.865 48.4573 74.69 47.6448 74.025 47.1898L66.99 42.0548ZM42 50.6998C35.07 50.6998 29.4 45.4348 29.4 38.9998C29.4 32.5648 35.07 27.2998 42 27.2998C48.93 27.2998 54.6 32.5648 54.6 38.9998C54.6 45.4348 48.93 50.6998 42 50.6998Z" fill="white"/>
</svg>
