<svg width="35" height="32" viewBox="0 0 35 32" fill="none" xmlns="http://www.w3.org/2000/svg">
<g clip-path="url(#clip0_181_93)">
<path d="M27.9125 17.2533C27.9708 16.8533 28 16.44 28 16C28 15.5733 27.9708 15.1467 27.8979 14.7467L30.8583 12.64C31.1208 12.4533 31.1938 12.0933 31.0333 11.8267L28.2333 7.40001C28.0583 7.10668 27.6938 7.01335 27.3729 7.10668L23.8875 8.38668C23.1583 7.88001 22.3854 7.45334 21.525 7.13335L21 3.74668C20.9417 3.42668 20.65 3.20001 20.3 3.20001H14.7C14.35 3.20001 14.0729 3.42668 14.0146 3.74668L13.4896 7.13335C12.6292 7.45334 11.8417 7.89334 11.1271 8.38668L7.64166 7.10668C7.32083 7.00001 6.95625 7.10668 6.78125 7.40001L3.99583 11.8267C3.82083 12.1067 3.87916 12.4533 4.17083 12.64L7.13125 14.7467C7.05833 15.1467 7 15.5867 7 16C7 16.4133 7.02916 16.8533 7.10208 17.2533L4.14166 19.36C3.87916 19.5467 3.80625 19.9067 3.96666 20.1733L6.76666 24.6C6.94166 24.8933 7.30625 24.9867 7.62708 24.8933L11.1125 23.6133C11.8417 24.12 12.6146 24.5467 13.475 24.8667L14 28.2533C14.0729 28.5733 14.35 28.8 14.7 28.8H20.3C20.65 28.8 20.9417 28.5733 20.9854 28.2533L21.5104 24.8667C22.3708 24.5467 23.1583 24.12 23.8729 23.6133L27.3583 24.8933C27.6792 25 28.0437 24.8933 28.2188 24.6L31.0187 20.1733C31.1938 19.88 31.1208 19.5467 30.8437 19.36L27.9125 17.2533ZM17.5 20.8C14.6125 20.8 12.25 18.64 12.25 16C12.25 13.36 14.6125 11.2 17.5 11.2C20.3875 11.2 22.75 13.36 22.75 16C22.75 18.64 20.3875 20.8 17.5 20.8Z" fill="#8A7EBE"/>
</g>
<defs>
<clipPath id="clip0_181_93">
<rect width="35" height="32" fill="white"/>
</clipPath>
</defs>
</svg>
